<svg width="151" height="32" viewBox="0 0 151 32" fill="none" xmlns="http://www.w3.org/2000/svg">
<g clip-path="url(#clip0_1758_4148)">
<path d="M31.4622 19.764C29.3846 28.0972 20.9443 33.1688 12.61 31.0907C4.27918 29.013 -0.792361 20.5723 1.28622 12.2395C3.36287 3.90522 11.8031 -1.16681 20.135 0.910805C28.4688 2.98842 33.5399 11.4301 31.4622 19.764Z" fill="#F7931A"/>
<path d="M23.2325 13.7824C23.5421 11.7126 21.9661 10.5999 19.8112 9.85762L20.5102 7.05375L18.8035 6.62841L18.1229 9.35842C17.6743 9.2466 17.2134 9.14109 16.7556 9.03655L17.441 6.28862L15.7352 5.86328L15.0357 8.66617C14.6643 8.58158 14.2997 8.49797 13.9459 8.40999L13.9478 8.40124L11.5941 7.81354L11.14 9.63646C11.14 9.63646 12.4063 9.9266 12.3796 9.94464C13.0709 10.1172 13.1957 10.5746 13.1749 10.9373L12.3787 14.1315C12.4262 14.1436 12.488 14.1611 12.5561 14.1884C12.4992 14.1742 12.4384 14.1587 12.3757 14.1436L11.2597 18.6182C11.175 18.8282 10.9606 19.1432 10.4774 19.0237C10.4945 19.0485 9.23694 18.714 9.23694 18.714L8.38965 20.6677L10.6107 21.2214C11.0238 21.3248 11.4288 21.4333 11.8274 21.5353L11.1211 24.3713L12.8259 24.7966L13.5253 21.9909C13.991 22.1172 14.4431 22.2339 14.8855 22.3438L14.1885 25.1364L15.8951 25.5618L16.6014 22.7311C19.5117 23.2819 21.7002 23.0597 22.6213 20.4275C23.3637 18.3081 22.5845 17.0855 21.0532 16.2883C22.1684 16.0311 23.0084 15.2976 23.2325 13.7824ZM19.3329 19.2507C18.8054 21.3701 15.2369 20.2243 14.08 19.937L15.0173 16.1799C16.1741 16.4686 19.8841 17.0403 19.3329 19.2507ZM19.8608 13.7518C19.3796 15.6797 16.4094 14.7002 15.446 14.4601L16.2957 11.0525C17.2591 11.2926 20.362 11.7408 19.8608 13.7518Z" fill="white"/>
<path d="M46.4054 9.85638C47.6668 9.85638 48.7567 10.0823 49.6725 10.5262C50.5927 10.9744 51.352 11.5782 51.961 12.3375C52.5619 13.1007 53.0091 13.9927 53.2978 15.0149C53.5847 16.0401 53.7285 17.1421 53.7285 18.3219C53.7285 20.1341 53.3965 21.8462 52.7262 23.46C52.0559 25.0763 51.1464 26.4783 49.9894 27.6741C48.8335 28.8685 47.4685 29.81 45.8945 30.5056C44.3229 31.2017 42.6142 31.5498 40.7796 31.5498C40.5425 31.5498 40.1253 31.543 39.5361 31.5309C38.947 31.5187 38.2698 31.4579 37.5115 31.3553C36.7483 31.2489 35.9414 31.0914 35.0893 30.8804C34.2377 30.6734 33.4288 30.3831 32.667 30.0147L39.4784 1.3947L45.579 0.449219L43.1401 10.6055C43.6623 10.3702 44.1882 10.1879 44.7132 10.0551C45.2387 9.92439 45.8025 9.85638 46.4054 9.85638ZM41.2881 26.7102C42.2068 26.7102 43.0726 26.4841 43.8858 26.0403C44.7016 25.5959 45.4054 24.9961 45.9951 24.249C46.5848 23.4984 47.0513 22.6531 47.3917 21.7086C47.732 20.7641 47.9041 19.7787 47.9041 18.7535C47.9041 17.4941 47.6936 16.5116 47.274 15.8015C46.8545 15.0942 46.0782 14.7383 44.9509 14.7383C44.5815 14.7383 44.1056 14.8088 43.5154 14.9347C42.9233 15.0684 42.3935 15.3459 41.9186 15.7635L39.3218 26.5492C39.4784 26.5769 39.6169 26.6031 39.735 26.6279C39.8507 26.6547 39.9785 26.6736 40.1059 26.6868C40.2406 26.7019 40.3946 26.7096 40.5809 26.7096C40.767 26.7096 40.9999 26.7102 41.2881 26.7102ZM60.0553 31.002H54.2282L59.1491 10.2953H65.016L60.0553 31.002ZM62.8906 7.7724C62.0774 7.7724 61.34 7.53032 60.6857 7.04519C60.026 6.56297 59.6993 5.82069 59.6993 4.82029C59.6993 4.27001 59.8112 3.75377 60.0329 3.26669C60.2579 2.78058 60.5521 2.36205 60.9205 2.00622C61.2885 1.6533 61.7148 1.37136 62.199 1.15894C62.686 0.949904 63.2042 0.845395 63.7564 0.845395C64.5692 0.845395 65.3027 1.08748 65.9594 1.57261C66.6137 2.06017 66.9429 2.80246 66.9429 3.79751C66.9429 4.34974 66.8315 4.86792 66.608 5.35403C66.3857 5.84014 66.0917 6.25867 65.7233 6.6145C65.3582 6.9679 64.928 7.24887 64.4448 7.45935C63.9572 7.67178 63.4409 7.7724 62.8906 7.7724ZM70.1225 5.13625L76.2256 4.19078L74.7269 10.2943H81.2631L80.0828 15.0961H73.586L71.8554 22.3391C71.696 22.9428 71.6056 23.5067 71.5803 24.0307C71.5516 24.5572 71.6182 25.0093 71.7757 25.3899C71.9322 25.7715 72.2137 26.0655 72.622 26.2736C73.0284 26.4851 73.6103 26.5915 74.3735 26.5915C75.002 26.5915 75.6145 26.5318 76.2065 26.4131C76.7953 26.2965 77.3917 26.1341 77.9954 25.9216L78.43 30.4113C77.6425 30.7001 76.7899 30.9485 75.8712 31.1575C74.951 31.3694 73.8616 31.4715 72.6026 31.4715C70.7923 31.4715 69.3889 31.2027 68.389 30.6675C67.3905 30.1284 66.6848 29.3919 66.2623 28.4596C65.8457 27.5307 65.6595 26.4598 65.7115 25.2533C65.7655 24.0439 65.9478 22.7727 66.2623 21.4339L70.1225 5.13625ZM81.0064 22.7333C81.0064 20.9498 81.2952 19.2679 81.8721 17.6934C82.4481 16.1174 83.278 14.7393 84.3547 13.5566C85.4275 12.3798 86.7346 11.4474 88.2732 10.763C89.8049 10.0823 91.5186 9.73923 93.4084 9.73923C94.5915 9.73923 95.6475 9.85096 96.5773 10.0751C97.5097 10.3011 98.3542 10.5933 99.1186 10.9598L97.1088 15.5292C96.5835 15.3163 96.0386 15.1287 95.4751 14.9585C94.9115 14.785 94.2235 14.7014 93.4093 14.7014C91.4644 14.7014 89.9266 15.3717 88.7822 16.708C87.6423 18.0453 87.0681 19.8454 87.0681 22.1033C87.0681 23.4415 87.3568 24.5236 87.9363 25.3515C88.5128 26.1793 89.5782 26.5911 91.124 26.5911C91.8875 26.5911 92.6235 26.5113 93.3293 26.3558C94.0395 26.1983 94.6671 25.9999 95.22 25.7656L95.6555 30.4497C94.9186 30.7356 94.1053 30.9937 93.2137 31.2198C92.3204 31.438 91.2573 31.5512 90.0235 31.5512C88.3957 31.5512 87.0176 31.3131 85.8903 30.8439C84.7625 30.3676 83.8306 29.7351 83.0967 28.9341C82.3587 28.1311 81.8289 27.1933 81.5012 26.1171C81.1737 25.0418 81.0064 23.9121 81.0064 22.7333ZM106.892 31.5512C105.501 31.5512 104.293 31.3393 103.268 30.9198C102.247 30.5003 101.4 29.9116 100.731 29.1485C100.06 28.3891 99.5586 27.4894 99.2146 26.4525C98.8715 25.4161 98.7062 24.2684 98.7062 23.0109C98.7062 21.4335 98.9595 19.8565 99.4715 18.2839C99.9809 16.708 100.736 15.2919 101.737 14.0335C102.729 12.773 103.954 11.7424 105.396 10.9389C106.836 10.1407 108.493 9.73923 110.353 9.73923C111.719 9.73923 112.92 9.95158 113.96 10.3711C114.993 10.7896 115.845 11.3832 116.519 12.1425C117.184 12.9057 117.69 13.8015 118.031 14.8399C118.374 15.8743 118.543 17.0249 118.543 18.2835C118.543 19.856 118.293 21.4329 117.797 23.0103C117.301 24.58 116.564 25.9994 115.592 27.2609C114.622 28.5194 113.408 29.5495 111.951 30.3496C110.496 31.1497 108.808 31.5512 106.892 31.5512ZM109.804 14.7018C108.94 14.7018 108.176 14.9527 107.522 15.448C106.866 15.9492 106.315 16.5792 105.871 17.339C105.422 18.1022 105.088 18.9343 104.864 19.8391C104.64 20.7456 104.531 21.6026 104.531 22.4168C104.531 23.7308 104.743 24.7541 105.16 25.4905C105.582 26.2231 106.341 26.5915 107.444 26.5915C108.311 26.5915 109.071 26.3426 109.728 25.8419C110.38 25.3447 110.932 24.7142 111.38 23.9529C111.826 23.1936 112.162 22.359 112.387 21.4529C112.608 20.5492 112.72 19.6873 112.72 18.8746C112.72 17.564 112.509 16.5383 112.088 15.8029C111.668 15.0703 110.906 14.7018 109.804 14.7018ZM124.892 31.002H119.06L123.981 10.2953H129.851L124.892 31.002ZM127.723 7.7724C126.911 7.7724 126.174 7.53032 125.52 7.04519C124.864 6.56297 124.535 5.82069 124.535 4.82029C124.535 4.27001 124.648 3.75377 124.87 3.26669C125.092 2.78058 125.388 2.36205 125.756 2.00622C126.122 1.6533 126.552 1.37136 127.036 1.15894C127.52 0.949904 128.038 0.845395 128.589 0.845395C129.403 0.845395 130.139 1.08748 130.794 1.57261C131.45 2.06017 131.781 2.80246 131.781 3.79751C131.781 4.34974 131.664 4.86792 131.443 5.35403C131.224 5.84014 130.928 6.25867 130.56 6.6145C130.191 6.9679 129.766 7.24887 129.281 7.45935C128.793 7.67178 128.276 7.7724 127.723 7.7724ZM134.05 11.2369C134.493 11.1076 134.986 10.952 135.524 10.7829C136.063 10.6137 136.665 10.4562 137.338 10.3143C138.003 10.1679 138.754 10.0494 139.58 9.95745C140.406 9.86367 141.347 9.81798 142.393 9.81798C145.466 9.81798 147.584 10.7128 148.754 12.4974C149.923 14.2819 150.125 16.724 149.367 19.8196L146.686 31H140.821L143.418 20.0549C143.577 19.3714 143.702 18.7108 143.793 18.0652C143.887 17.4255 143.88 16.8616 143.773 16.3735C143.669 15.8913 143.425 15.4967 143.047 15.1909C142.662 14.89 142.08 14.7388 141.293 14.7388C140.533 14.7388 139.76 14.8205 138.971 14.978L135.152 30.9995H129.284L134.05 11.2369Z" fill="#4D4D4D"/>
</g>
<defs>
<clipPath id="clip0_1758_4148">
<rect width="150.222" height="32" fill="white" transform="translate(0.388672)"/>
</clipPath>
</defs>
</svg>
