<svg width="400" height="400" viewBox="0 0 400 400" fill="none" xmlns="http://www.w3.org/2000/svg">
<path d="M400 200C400 310.457 310.457 400 200 400C89.5431 400 0 310.457 0 200C0 89.543 89.5431 -9.95925e-06 200 -9.95925e-06C310.457 -9.95925e-06 400 89.543 400 200Z" fill="#D9D9D9"/>
<path d="M65.0682 165.182H83.2727L102.5 212.091H103.318L122.545 165.182H140.75V235H126.432V189.557H125.852L107.784 234.659H98.0341L79.9659 189.386H79.3864V235H65.0682V165.182ZM152.912 235V165.182H180.457C185.73 165.182 190.23 166.125 193.957 168.011C197.707 169.875 200.56 172.523 202.514 175.955C204.491 179.364 205.48 183.375 205.48 187.989C205.48 192.625 204.48 196.614 202.48 199.955C200.48 203.273 197.582 205.818 193.787 207.591C190.014 209.364 185.446 210.25 180.082 210.25H161.639V198.386H177.696C180.514 198.386 182.855 198 184.719 197.227C186.582 196.455 187.969 195.295 188.878 193.75C189.81 192.205 190.276 190.284 190.276 187.989C190.276 185.67 189.81 183.716 188.878 182.125C187.969 180.534 186.571 179.33 184.685 178.511C182.821 177.67 180.469 177.25 177.628 177.25H167.673V235H152.912ZM190.616 203.227L207.969 235H191.673L174.696 203.227H190.616ZM215.912 235V165.182H230.673V195.966H231.594L256.719 165.182H274.412L248.503 196.443L274.719 235H257.06L237.935 206.295L230.673 215.159V235H215.912ZM279.44 177.352V165.182H336.781V177.352H315.406V235H300.815V177.352H279.44Z" fill="#282828"/>
</svg>
