<svg width="180" height="32" viewBox="0 0 180 32" fill="none" xmlns="http://www.w3.org/2000/svg">
<g clip-path="url(#clip0_1758_4133)">
<path d="M78.6036 21.2662V14.7331C78.6036 12.2723 77.0369 10.6173 74.5117 10.5955C73.7924 10.5486 73.0738 10.6957 72.431 11.0213C71.7876 11.3468 71.2436 11.8391 70.8554 12.4466C70.5013 11.8572 69.9952 11.3741 69.39 11.0483C68.7848 10.7226 68.1029 10.5661 67.4163 10.5955C66.8178 10.5654 66.2218 10.6922 65.6874 10.9635C65.1529 11.2346 64.6985 11.6408 64.3692 12.1418V10.8569H62.1055V21.2662H64.3908V15.4952C64.3908 13.6878 65.3921 12.7298 66.9375 12.7298C68.4392 12.7298 69.2012 13.7096 69.2012 15.4736V21.2662H71.4863V15.4952C71.4863 13.6878 72.5312 12.7298 74.0331 12.7298C75.5782 12.7298 76.3183 13.7096 76.3183 15.4736V21.2662H78.6036ZM112.428 10.8569H108.727V7.69932H106.442V10.8569H104.331V12.9257H106.442V17.673C106.442 20.0903 107.379 21.5276 110.055 21.5276C111.056 21.5306 112.036 21.2513 112.885 20.7219L112.232 18.7836C111.625 19.1459 110.936 19.3482 110.229 19.3717C109.097 19.3717 108.727 18.6747 108.727 17.6295V12.9257H112.428V10.8569ZM131.734 10.5955C131.182 10.5793 130.636 10.7123 130.153 10.9806C129.671 11.2488 129.269 11.6425 128.992 12.1199V10.8569H126.75V21.2662H129.013V15.43C129.013 13.7096 129.753 12.7514 131.234 12.7514C131.718 12.7447 132.199 12.8336 132.648 13.0128L133.345 10.8787C132.828 10.6935 132.283 10.5978 131.734 10.5955ZM102.547 11.6844C101.265 10.9221 99.7917 10.5442 98.3016 10.5955C95.6679 10.5955 93.9705 11.8586 93.9705 13.9274C93.9705 15.626 95.2331 16.6714 97.5615 16.998L98.6286 17.1504C99.8689 17.3245 100.457 17.6512 100.457 18.2392C100.457 19.045 99.6296 19.5022 98.0839 19.5022C96.8415 19.538 95.622 19.1545 94.623 18.4135L93.5566 20.1772C94.8756 21.0987 96.4547 21.5721 98.0623 21.5276C101.066 21.5276 102.807 20.1119 102.807 18.1303C102.807 16.301 101.436 15.3428 99.1726 15.0162L98.1062 14.8637C97.1267 14.7331 96.3427 14.5372 96.3427 13.8404C96.3427 13.0781 97.0829 12.6209 98.3239 12.6209C99.4627 12.638 100.579 12.9453 101.567 13.5137L102.547 11.6844ZM163.186 10.5955C162.633 10.5793 162.088 10.7123 161.605 10.9805C161.123 11.2488 160.721 11.6424 160.444 12.1199V10.8569H158.201V21.2662H160.465V15.43C160.465 13.7096 161.205 12.7514 162.685 12.7514C163.169 12.7447 163.65 12.8336 164.1 13.0128L164.796 10.8787C164.279 10.6935 163.735 10.5978 163.186 10.5955ZM134.019 16.0615C134.019 19.2193 136.218 21.5276 139.57 21.5276C140.929 21.5959 142.264 21.153 143.313 20.2862L142.225 18.457C141.443 19.0538 140.489 19.3822 139.504 19.3933C137.698 19.3717 136.371 18.065 136.371 16.0615C136.371 14.0581 137.698 12.7514 139.504 12.7298C140.489 12.7409 141.443 13.0693 142.225 13.6661L143.313 11.8369C142.264 10.9701 140.929 10.5272 139.57 10.5955C136.218 10.5955 134.019 12.9038 134.019 16.0615ZM155.219 16.0615V10.8569H152.956V12.1199C152.569 11.6218 152.069 11.2234 151.497 10.9582C150.926 10.693 150.299 10.5686 149.669 10.5955C146.752 10.5955 144.467 12.8823 144.467 16.0615C144.467 19.2409 146.752 21.5276 149.669 21.5276C150.299 21.5546 150.926 21.4302 151.497 21.1649C152.069 20.8997 152.569 20.5013 152.956 20.0032V21.2662H155.219V16.0615ZM146.796 16.0615C146.796 14.2322 147.993 12.7298 149.952 12.7298C151.824 12.7298 153.086 14.1669 153.086 16.0615C153.086 17.956 151.824 19.3933 149.952 19.3933C147.993 19.3933 146.796 17.8907 146.796 16.0615ZM119.48 10.5955C116.433 10.5955 114.3 12.8167 114.3 16.0615C114.3 19.3717 116.52 21.5276 119.632 21.5276C121.185 21.5821 122.704 21.0627 123.899 20.0685L122.789 18.3916C121.929 19.0808 120.864 19.4639 119.763 19.4805C118.304 19.4805 116.977 18.8055 116.65 16.9325H124.377C124.399 16.6495 124.421 16.3665 124.421 16.0615C124.399 12.8167 122.397 10.5955 119.48 10.5955ZM119.436 12.6209C120.895 12.6209 121.831 13.5354 122.07 15.1469H116.672C116.912 13.6443 117.826 12.6209 119.436 12.6209ZM176.224 16.0615V6.67578H173.959V12.1199C173.573 11.6218 173.073 11.2234 172.501 10.9582C171.929 10.693 171.303 10.5686 170.673 10.5955C167.756 10.5955 165.471 12.8823 165.471 16.0615C165.471 19.2409 167.756 21.5276 170.673 21.5276C171.303 21.5545 171.929 21.4301 172.501 21.1649C173.073 20.8997 173.573 20.5013 173.959 20.0032V21.2662H176.224V16.0615ZM178.869 20.3057C178.958 20.3051 179.047 20.3227 179.13 20.3575C179.21 20.3907 179.283 20.4388 179.344 20.4991C179.405 20.5594 179.454 20.6309 179.488 20.7097C179.523 20.7906 179.541 20.8778 179.541 20.9659C179.541 21.054 179.523 21.1411 179.488 21.2221C179.454 21.3005 179.405 21.3717 179.344 21.4318C179.283 21.4922 179.209 21.5404 179.13 21.5742C179.048 21.6096 178.959 21.6275 178.869 21.6269C178.736 21.6282 178.607 21.5906 178.496 21.5186C178.385 21.4466 178.297 21.3434 178.245 21.2221C178.211 21.1411 178.192 21.054 178.192 20.9659C178.192 20.8778 178.211 20.7907 178.245 20.7097C178.313 20.5498 178.442 20.4232 178.603 20.3575C178.687 20.3226 178.777 20.305 178.869 20.3057ZM178.869 21.4812C178.937 21.4817 179.005 21.4679 179.068 21.4407C179.128 21.4145 179.183 21.3771 179.23 21.3306C179.326 21.2336 179.379 21.1027 179.379 20.9662C179.379 20.8298 179.326 20.6988 179.23 20.6019C179.183 20.5555 179.129 20.5184 179.068 20.4926C179.005 20.4659 178.937 20.4524 178.869 20.453C178.799 20.4524 178.73 20.4659 178.665 20.4926C178.588 20.5257 178.52 20.5771 178.467 20.6426C178.414 20.708 178.378 20.7854 178.361 20.8681C178.345 20.9507 178.35 21.0361 178.374 21.1167C178.398 21.1973 178.442 21.2707 178.501 21.3306C178.549 21.3774 178.604 21.4149 178.665 21.4407C178.73 21.4679 178.799 21.4817 178.869 21.4812ZM178.908 20.657C178.973 20.6528 179.037 20.6714 179.09 20.7097C179.111 20.7269 179.127 20.7489 179.139 20.7738C179.15 20.7986 179.155 20.8257 179.154 20.8529C179.155 20.8762 179.15 20.8994 179.141 20.921C179.133 20.9426 179.12 20.9621 179.103 20.9783C179.063 21.014 179.012 21.0354 178.958 21.0391L179.159 21.2706H179.001L178.816 21.0406H178.756V21.2706H178.624V20.657H178.908ZM178.756 20.7719V20.9355H178.906C178.935 20.937 178.964 20.9299 178.989 20.9152C178.999 20.9084 179.007 20.8991 179.013 20.8882C179.017 20.8772 179.02 20.865 179.02 20.8529C179.02 20.841 179.017 20.8291 179.012 20.8184C179.007 20.8078 178.999 20.7987 178.989 20.7921C178.964 20.7776 178.935 20.7706 178.906 20.7719H178.756ZM167.8 16.0615C167.8 14.2322 168.997 12.7298 170.956 12.7298C172.828 12.7298 174.09 14.1669 174.09 16.0615C174.09 17.956 172.828 19.3933 170.956 19.3933C168.997 19.3933 167.8 17.8907 167.8 16.0615ZM91.3583 16.0615V10.8569H89.0947V12.1199C88.7086 11.6218 88.2084 11.2234 87.6366 10.9582C87.0648 10.6929 86.438 10.5686 85.8084 10.5955C82.8916 10.5955 80.6063 12.8823 80.6063 16.0615C80.6063 19.2409 82.8916 21.5276 85.8084 21.5276C86.438 21.5546 87.0648 21.4302 87.6366 21.1649C88.2084 20.8997 88.7086 20.5013 89.0947 20.0032V21.2662H91.3583V16.0615ZM82.9354 16.0615C82.9354 14.2322 84.1326 12.7298 86.0916 12.7298C87.9629 12.7298 89.2255 14.1669 89.2255 16.0615C89.2255 17.956 87.9629 19.3933 86.0916 19.3933C84.1326 19.3933 82.9354 17.8907 82.9354 16.0615Z" fill="#231F20"/>
<path d="M33.2307 3.69531H19.542V28.3068H33.2307V3.69531Z" fill="#FF5F00"/>
<path d="M20.408 15.9998C20.4058 13.6295 20.9427 11.2898 21.9779 9.15788C23.0131 7.02592 24.5196 5.15748 26.3831 3.6941C24.0753 1.87916 21.3036 0.750474 18.385 0.43705C15.4663 0.123627 12.5184 0.638101 9.87816 1.92169C7.23793 3.20528 5.01191 5.20619 3.45455 7.69569C1.89717 10.1852 1.07129 13.0629 1.07129 15.9998C1.07129 18.9367 1.89717 21.8144 3.45455 24.304C5.01191 26.7934 7.23793 28.7944 9.87816 30.078C12.5184 31.3616 15.4663 31.876 18.385 31.5626C21.3036 31.2492 24.0753 30.1205 26.3831 28.3056C24.5196 26.8421 23.0131 24.9737 21.9779 22.8418C20.9427 20.7097 20.4058 18.3701 20.408 15.9998Z" fill="#EB001B"/>
<path d="M51.6978 15.9998C51.6979 18.9367 50.8721 21.8144 49.3148 24.3039C47.7575 26.7934 45.5316 28.7943 42.8914 30.078C40.2512 31.3616 37.3033 31.876 34.3847 31.5626C31.4661 31.2492 28.6945 30.1205 26.3867 28.3056C28.2487 26.8407 29.754 24.972 30.789 22.8403C31.824 20.7087 32.3618 18.3697 32.3618 15.9998C32.3618 13.63 31.824 11.291 30.789 9.15934C29.754 7.02766 28.2487 5.15897 26.3867 3.69411C28.6945 1.87916 31.4661 0.750467 34.3847 0.437046C37.3033 0.123627 40.2512 0.638123 42.8914 1.92172C45.5316 3.20533 47.7575 5.20625 49.3148 7.69576C50.8721 10.1853 51.6979 13.0629 51.6978 15.9998Z" fill="#F79E1B"/>
<path d="M50.2048 25.7032V25.1994H50.4078V25.0967H49.8906V25.1994H50.0938V25.7032H50.2048ZM51.2088 25.7032V25.0957H51.0503L50.8679 25.5136L50.6855 25.0957H50.5269V25.7032H50.6389V25.2449L50.8099 25.64H50.926L51.097 25.2439V25.7032H51.2088Z" fill="#F79E1B"/>
</g>
<defs>
<clipPath id="clip0_1758_4133">
<rect width="178.783" height="32" fill="white" transform="translate(0.775391)"/>
</clipPath>
</defs>
</svg>
