<svg width="98" height="24" viewBox="0 0 98 24" fill="none" xmlns="http://www.w3.org/2000/svg">
<g clip-path="url(#clip0_1734_3785)">
<path d="M36.6635 5.51172H31.3429C31.1667 5.51161 30.9963 5.57438 30.8624 5.6888C30.7285 5.80316 30.6398 5.96167 30.6123 6.13567L28.4604 19.7792C28.4505 19.8426 28.4545 19.9073 28.4719 19.9689C28.4895 20.0306 28.5201 20.0876 28.5618 20.1363C28.6035 20.185 28.6553 20.224 28.7135 20.2507C28.7718 20.2775 28.8351 20.2913 28.8992 20.2912H31.4393C31.6156 20.2913 31.7861 20.2284 31.92 20.1138C32.054 19.9993 32.1426 19.8406 32.1699 19.6664L32.7502 15.9866C32.7775 15.8126 32.866 15.654 32.9998 15.5395C33.1336 15.4249 33.3039 15.3619 33.48 15.3618H35.1643C38.6692 15.3618 40.692 13.6658 41.2202 10.3049C41.4583 8.83452 41.2303 7.67918 40.5418 6.87007C39.7856 5.9816 38.4444 5.51172 36.6635 5.51172ZM37.2774 10.4947C36.9864 12.4039 35.5277 12.4039 34.1172 12.4039H33.3143L33.8775 8.83838C33.8941 8.73408 33.9472 8.63907 34.0275 8.57047C34.1078 8.50186 34.2099 8.46419 34.3156 8.46419H34.6836C35.6443 8.46419 36.5507 8.46419 37.0191 9.01186C37.2984 9.33862 37.384 9.8241 37.2774 10.4947ZM52.568 10.4333H50.0201C49.9145 10.4333 49.8123 10.471 49.732 10.5396C49.6517 10.6082 49.5986 10.7032 49.5821 10.8075L49.4693 11.5201L49.2911 11.2618C48.7395 10.4613 47.5095 10.1936 46.2818 10.1936C43.4663 10.1936 41.0615 12.3261 40.5931 15.3175C40.3496 16.8097 40.6959 18.2365 41.5423 19.2316C42.3187 20.1465 43.4297 20.5277 44.7515 20.5277C47.0201 20.5277 48.2781 19.069 48.2781 19.069L48.1646 19.777C48.1544 19.8402 48.1581 19.905 48.1755 19.9667C48.1928 20.0284 48.2233 20.0857 48.2648 20.1344C48.3064 20.1833 48.358 20.2225 48.4162 20.2494C48.4744 20.2763 48.5377 20.2903 48.6018 20.2904H50.8969C51.0731 20.2905 51.2436 20.2276 51.3776 20.113C51.5115 19.9985 51.6001 19.8398 51.6274 19.6657L53.0044 10.9452C53.0148 10.882 53.0106 10.8174 52.9934 10.7558C52.9762 10.6943 52.9459 10.6371 52.9042 10.5884C52.863 10.5398 52.8113 10.5007 52.7533 10.4739C52.6952 10.4471 52.632 10.4332 52.568 10.4333ZM49.0165 15.3922C48.7706 16.8478 47.6153 17.825 46.1418 17.825C45.4019 17.825 44.8107 17.5877 44.431 17.138C44.0545 16.6914 43.9113 16.0558 44.0311 15.3479C44.2606 13.9047 45.4354 12.8956 46.8863 12.8956C47.6099 12.8956 48.198 13.136 48.5855 13.5896C48.9737 14.0478 49.1277 14.6873 49.0165 15.3922ZM66.1376 10.4333H63.5774C63.4564 10.4334 63.3379 10.4631 63.231 10.5196C63.1245 10.5762 63.0332 10.6579 62.9649 10.7577L59.4338 15.9593L57.9369 10.9608C57.891 10.8083 57.7971 10.6747 57.6692 10.5797C57.5414 10.4847 57.3865 10.4333 57.2273 10.4333H54.7115C54.6405 10.4331 54.5712 10.4498 54.508 10.4819C54.4454 10.5141 54.3912 10.5608 54.3499 10.6182C54.3087 10.6756 54.2816 10.742 54.2717 10.8119C54.2612 10.8817 54.2675 10.953 54.2905 11.0199L57.1105 19.2961L54.4595 23.039C54.412 23.1054 54.3844 23.1834 54.3786 23.2646C54.3729 23.3459 54.3896 23.427 54.4266 23.4994C54.4642 23.5717 54.5205 23.6323 54.5905 23.6746C54.6599 23.7169 54.7397 23.7392 54.8211 23.7392H57.3781C57.4976 23.7394 57.6155 23.7106 57.7214 23.6553C57.8268 23.6 57.9176 23.5199 57.9859 23.4218L66.5018 11.1295C66.5482 11.0631 66.5748 10.9852 66.58 10.9044C66.5852 10.8236 66.568 10.743 66.5305 10.6712C66.4929 10.5995 66.4366 10.5394 66.3672 10.4975C66.2983 10.4555 66.2185 10.4333 66.1376 10.4333Z" fill="#253B80"/>
<path d="M74.615 5.51055H69.2932C69.1174 5.5106 68.9473 5.57352 68.8132 5.68789C68.6797 5.80225 68.591 5.96065 68.5638 6.1345L66.4117 19.7781C66.4017 19.8413 66.4054 19.906 66.4231 19.9675C66.4404 20.0291 66.4706 20.0862 66.5124 20.1348C66.5541 20.1835 66.6057 20.2226 66.6637 20.2494C66.7216 20.2762 66.7852 20.2901 66.8489 20.2901H69.5797C69.7028 20.2899 69.8223 20.2457 69.9157 20.1656C70.0091 20.0854 70.0711 19.9745 70.0899 19.8528L70.7009 15.9854C70.728 15.8114 70.8167 15.6528 70.9503 15.5383C71.0844 15.4238 71.2544 15.3608 71.4308 15.3607H73.1139C76.62 15.3607 78.6417 13.6647 79.1708 10.3038C79.4097 8.83335 79.1802 7.67801 78.4915 6.8689C77.736 5.98048 76.3957 5.51055 74.615 5.51055ZM75.2285 10.4936C74.9384 12.4028 73.4797 12.4028 72.0684 12.4028H71.2664L71.8304 8.83726C71.8466 8.73291 71.8998 8.63785 71.9797 8.56919C72.06 8.50053 72.1623 8.46291 72.2677 8.46302H72.6355C73.5955 8.46302 74.5028 8.46302 74.9713 9.01074C75.2504 9.3375 75.3355 9.82293 75.2285 10.4936ZM90.5186 10.4321H87.972C87.8666 10.4319 87.7644 10.4694 87.684 10.5381C87.6042 10.6068 87.551 10.702 87.5348 10.8064L87.4221 11.5189L87.2431 11.2607C86.6917 10.4601 85.4624 10.1925 84.2348 10.1925C81.419 10.1925 79.0153 12.325 78.5468 15.3163C78.3042 16.8085 78.6485 18.2354 79.4953 19.2304C80.2732 20.1453 81.3824 20.5266 82.7045 20.5266C84.973 20.5266 86.231 19.0678 86.231 19.0678L86.1172 19.7758C86.1073 19.8392 86.111 19.9041 86.1287 19.9659C86.1459 20.0277 86.1767 20.0851 86.2184 20.1339C86.2602 20.1827 86.3118 20.2219 86.3703 20.2487C86.4287 20.2756 86.4918 20.2894 86.5565 20.2893H88.8506C89.0264 20.2892 89.197 20.2261 89.3306 20.1116C89.4647 19.9971 89.5529 19.8386 89.5805 19.6645L90.9579 10.944C90.9678 10.8807 90.9637 10.816 90.9464 10.7543C90.9287 10.6927 90.8979 10.6356 90.8562 10.587C90.8144 10.5383 90.7628 10.4993 90.7044 10.4725C90.6459 10.4458 90.5828 10.4321 90.5186 10.4321ZM86.9671 15.391C86.723 16.8466 85.5657 17.8238 84.0924 17.8238C83.3541 17.8238 82.7614 17.5865 82.3816 17.1368C82.0049 16.6903 81.8635 16.0546 81.9819 15.3467C82.2125 13.9035 83.3859 12.8945 84.8369 12.8945C85.5605 12.8945 86.1485 13.1349 86.5362 13.5884C86.9259 14.0467 87.0798 14.6862 86.9671 15.391ZM93.5223 5.88474L91.3388 19.7781C91.3284 19.8413 91.3325 19.906 91.3497 19.9675C91.367 20.0291 91.3977 20.0862 91.439 20.1348C91.4807 20.1835 91.5324 20.2226 91.5903 20.2494C91.6487 20.2762 91.7118 20.2901 91.776 20.2901H93.9715C94.3362 20.2901 94.6456 20.0255 94.7019 19.6653L96.8551 6.02248C96.865 5.95924 96.8614 5.89455 96.8442 5.83293C96.827 5.77131 96.7962 5.71418 96.755 5.66545C96.7132 5.61677 96.6616 5.57759 96.6037 5.55072C96.5452 5.52385 96.4821 5.50987 96.4179 5.50977H93.9595C93.8541 5.51013 93.7524 5.54806 93.672 5.61677C93.5917 5.68549 93.539 5.7805 93.5223 5.88474Z" fill="#179BD7"/>
<path d="M6.36452 22.9415L6.77143 20.357L5.86506 20.336H1.53711L4.54482 1.26515C4.55377 1.20687 4.58337 1.15376 4.62821 1.11549C4.67305 1.07722 4.73016 1.05633 4.78911 1.05664H12.0866C14.5093 1.05664 16.1813 1.56078 17.0541 2.55583C17.4634 3.02263 17.724 3.51043 17.85 4.04724C17.9823 4.61051 17.9846 5.28345 17.8555 6.10425L17.8461 6.16415V6.69006L18.2554 6.92192C18.5677 7.08016 18.8486 7.29429 19.0839 7.55364C19.434 7.95277 19.6604 8.46001 19.7561 9.06136C19.8549 9.67989 19.8222 10.4159 19.6604 11.2491C19.4737 12.2076 19.1718 13.0424 18.7642 13.7255C18.4045 14.3373 17.9208 14.8674 17.3443 15.2814C16.8029 15.6657 16.1594 15.9575 15.432 16.1442C14.7272 16.3278 13.9235 16.4204 13.0421 16.4204H12.4741C12.068 16.4204 11.6735 16.5667 11.3639 16.8289C11.0547 17.0939 10.8496 17.46 10.7851 17.862L10.7423 18.0947L10.0234 22.6497L9.99077 22.817C9.98221 22.8699 9.96739 22.8964 9.94563 22.9143C9.9245 22.9315 9.89821 22.9411 9.87092 22.9415H6.36452Z" fill="#253B80"/>
<path d="M18.643 6.22461C18.6212 6.36386 18.5963 6.50624 18.5683 6.65249C17.606 11.5935 14.3135 13.3004 10.1084 13.3004H7.96742C7.4532 13.3004 7.01984 13.6738 6.9397 14.1811L5.84351 21.1333L5.53309 23.1039C5.52073 23.1821 5.52545 23.2619 5.54694 23.3381C5.56842 23.4143 5.60615 23.4849 5.65754 23.5451C5.70892 23.6053 5.77275 23.6536 5.84461 23.6868C5.91647 23.7199 5.99468 23.7371 6.07382 23.7371H9.87115C10.3208 23.7371 10.7028 23.4104 10.7736 22.967L10.811 22.774L11.5259 18.2368L11.5719 17.9878C11.6419 17.5428 12.0246 17.216 12.4743 17.216H13.0423C16.7214 17.216 19.6015 15.7223 20.4433 11.3998C20.795 9.59405 20.6129 8.08633 19.6824 7.02595C19.3875 6.69788 19.0353 6.42637 18.643 6.22461Z" fill="#179BD7"/>
<path d="M17.636 5.82424C17.3287 5.73533 17.0162 5.66594 16.7001 5.61648C16.0756 5.52053 15.4445 5.47446 14.8127 5.47879H9.09293C8.87526 5.47864 8.66469 5.55633 8.4993 5.69787C8.33396 5.83942 8.22465 6.03549 8.19121 6.25055L6.97446 13.9573L6.93945 14.1822C6.97733 13.9369 7.10182 13.7132 7.29032 13.5516C7.47883 13.3901 7.71893 13.3014 7.96717 13.3015H10.1082C14.3132 13.3015 17.6057 11.5938 18.5681 6.65354C18.5968 6.5073 18.621 6.36492 18.6427 6.22566C18.3888 6.09252 18.1241 5.98086 17.8515 5.89191C17.78 5.86822 17.7082 5.84563 17.636 5.82424Z" fill="#222D65"/>
<path d="M8.19144 6.25149C8.22462 6.03633 8.33382 5.84021 8.49926 5.69871C8.66471 5.55721 8.87544 5.47979 9.09316 5.48047H14.8129C15.4906 5.48047 16.1231 5.52481 16.7003 5.61821C17.091 5.67956 17.4762 5.77139 17.8525 5.8928C18.1365 5.98697 18.4003 6.09821 18.6438 6.22655C18.9301 4.40063 18.6414 3.1574 17.6542 2.03165C16.5657 0.792307 14.6013 0.261719 12.0876 0.261719H4.79007C4.2766 0.261719 3.83859 0.635154 3.75923 1.14318L0.719624 20.4101C0.705466 20.4996 0.710852 20.591 0.735413 20.6782C0.759974 20.7654 0.803125 20.8462 0.8619 20.9151C0.920675 20.984 0.993678 21.0394 1.07589 21.0773C1.1581 21.1153 1.24756 21.1351 1.33813 21.1352H5.84347L6.97469 13.9583L8.19144 6.25149Z" fill="#253B80"/>
</g>
<defs>
<clipPath id="clip0_1734_3785">
<rect width="96.5217" height="24" fill="white" transform="translate(0.638672)"/>
</clipPath>
</defs>
</svg>
