<svg width="119" height="32" viewBox="0 0 119 32" fill="none" xmlns="http://www.w3.org/2000/svg">
<path d="M16.8877 32C25.7243 32 32.8877 24.8366 32.8877 16C32.8877 7.16344 25.7243 0 16.8877 0C8.05114 0 0.887695 7.16344 0.887695 16C0.887695 24.8366 8.05114 32 16.8877 32Z" fill="#26A17B"/>
<path d="M18.5939 17.4769V17.4743C18.4832 17.482 17.9122 17.5154 16.6414 17.5154C15.6254 17.5154 14.9128 17.4871 14.6607 17.4743V17.4769C10.7533 17.3045 7.83887 16.6254 7.83887 15.81C7.83887 14.9971 10.7559 14.3154 14.6607 14.1431V16.8003C14.9154 16.8183 15.6485 16.8621 16.6594 16.8621C17.8736 16.8621 18.4807 16.8106 18.5939 16.8003V14.1457C22.4935 14.3206 25.4003 14.9997 25.4003 15.8126C25.4003 16.6254 22.491 17.3045 18.5939 17.4794M18.5939 13.8704V11.4936H24.0344V7.86914H9.22279V11.4936H14.6633V13.8704C10.2414 14.0736 6.91797 14.9482 6.91797 15.9978C6.91797 17.0473 10.244 17.9219 14.6633 18.1277V25.747H18.5964V18.1277C23.0106 17.9244 26.3289 17.0499 26.3289 16.0003C26.3289 14.9534 23.0106 14.0762 18.5964 13.873" fill="white"/>
<path d="M46.4791 8.85976V12.7028H50.2142V15.5864H46.4534V21.4334C46.4534 22.7247 47.1659 23.3549 48.2103 23.3549C48.7325 23.3549 49.337 23.1903 49.8309 22.9434L50.7646 25.7987C49.8052 26.1819 49.0077 26.3466 47.9917 26.3749C45.054 26.4855 43.1325 24.8109 43.1325 21.4334V15.5864H40.6064V12.7028H43.1325V9.21731L46.4791 8.85976ZM110.873 12.5228L111.12 14.0868C112.164 12.4122 113.563 12.1652 114.937 12.1652C116.336 12.1652 117.682 12.7131 118.423 13.454L116.913 16.3633C116.226 15.7871 115.596 15.4836 114.497 15.4836C112.74 15.4836 111.12 16.4173 111.12 18.9151V26.0533H107.77V12.5176L110.873 12.5228ZM102.664 17.7112C102.446 15.9543 101.072 15.0745 99.1505 15.0745C97.3396 15.0745 95.8553 15.9543 95.3614 17.7112H102.664ZM95.3074 20.4842C95.5261 22.1588 96.982 23.3678 99.3434 23.3678C100.578 23.3678 102.199 22.8996 102.968 22.1048L105.108 24.2192C103.68 25.7009 101.347 26.416 99.2868 26.416C94.6206 26.416 91.845 23.5324 91.845 19.1954C91.845 15.0771 94.6463 12.1112 99.0399 12.1112C103.57 12.1112 106.399 14.9125 105.877 20.4842H95.3074ZM80.537 6.83789V14.3594C81.746 12.7954 83.2277 12.3273 84.7659 12.3273C88.609 12.3273 90.3119 14.9356 90.3119 18.9176V26.0559H86.9627V18.9459C86.9627 16.4739 85.6714 15.4321 83.8862 15.4321C81.9081 15.4321 80.537 17.1067 80.537 19.1389V26.0585H77.1878V6.84046L80.537 6.83789ZM71.6418 8.70541V12.5485H75.3769V15.4321H71.6161V21.279C71.6161 22.5704 72.3312 23.2006 73.373 23.2006C73.8952 23.2006 74.4997 23.036 74.9936 22.789L75.9274 25.6443C74.9679 26.0276 74.1704 26.1922 73.1544 26.2205C70.2167 26.3311 68.2952 24.654 68.2952 21.279V15.4321H65.7692V12.5485H68.2952V9.06297L71.6418 8.70541ZM62.3891 17.7112C62.1704 15.9543 60.7968 15.0745 58.8753 15.0745C57.0643 15.0745 55.5801 15.9543 55.0862 17.7112H62.3891ZM55.0322 20.4842C55.2508 22.1588 56.7068 23.3678 59.0682 23.3678C60.3029 23.3678 61.9235 22.8996 62.6926 22.1048L64.8328 24.2192C63.4052 25.7009 61.072 26.416 59.0116 26.416C54.3428 26.416 51.5698 23.5324 51.5698 19.1954C51.5698 15.0771 54.3711 12.1112 58.7621 12.1112C63.292 12.1112 66.119 14.9125 65.5994 20.4842H55.0322Z" fill="#5B5A5D"/>
</svg>
