<svg width="74" height="24" viewBox="0 0 74 24" fill="none" xmlns="http://www.w3.org/2000/svg">
<g clip-path="url(#clip0_1758_4139)">
<path d="M32.3862 23.2784H26.5175L30.1854 0.736771H36.0548L32.3862 23.2784ZM21.5804 0.736771L15.9854 16.241L15.3233 12.9024L15.3239 12.9036L13.3491 2.76638C13.3491 2.76638 13.1104 0.736771 10.5652 0.736771H1.31557L1.20703 1.11845C1.20703 1.11845 4.03559 1.70696 7.34591 3.69496L12.4446 23.279H18.5594L27.8965 0.736771H21.5804ZM67.7411 23.2784H73.1297L68.4317 0.736171H63.7138C61.5353 0.736171 61.0047 2.41606 61.0047 2.41606L52.2519 23.2784H58.3697L59.5931 19.93H67.0537L67.7411 23.2784ZM61.2832 15.3046L64.3668 6.86905L66.1017 15.3046H61.2832ZM52.7108 6.15752L53.5483 1.31683C53.5483 1.31683 50.9639 0.333984 48.2698 0.333984C45.3574 0.333984 38.4413 1.60686 38.4413 7.79638C38.4413 13.6199 46.5586 13.6923 46.5586 16.7512C46.5586 19.81 39.2776 19.262 36.8748 17.333L36.0023 22.3944C36.0023 22.3944 38.6228 23.6673 42.6266 23.6673C46.6316 23.6673 52.6734 21.5936 52.6734 15.9499C52.6734 10.0889 44.4832 9.54325 44.4832 6.99505C44.4838 4.44628 50.1994 4.77369 52.7108 6.15752Z" fill="#2566AF"/>
<path d="M15.3239 12.9012L13.3491 2.76399C13.3491 2.76399 13.1104 0.734375 10.5652 0.734375H1.31557L1.20703 1.11606C1.20703 1.11606 5.65277 2.0374 9.91698 5.48944C13.9943 8.78895 15.3239 12.9012 15.3239 12.9012Z" fill="#E6A540"/>
</g>
<defs>
<clipPath id="clip0_1758_4139">
<rect width="72.6667" height="24" fill="white" transform="translate(0.557617)"/>
</clipPath>
</defs>
</svg>
