<svg width="76" height="32" viewBox="0 0 76 32" fill="none" xmlns="http://www.w3.org/2000/svg">
<g clip-path="url(#clip0_1734_3792)">
<path d="M8.09015 4.43156L1.31635 4.36921V8.86312H12.5423L0.875977 23.817V27.62H8.09015V32H12.4186V27.62H19.7771C19.839 27.4448 19.8606 26.9723 19.469 26.5395C18.8197 25.8181 18.3034 25.0641 17.8293 24.1159C17.6129 23.6934 17.4485 23.1874 17.3866 23.1462C15.9376 23.0797 7.60123 23.0969 7.60577 23.0442L19.2824 7.99846V4.43156H12.4186V0H8.09015V4.43156ZM39.3481 2.33946C39.245 2.38068 39.2142 4.6583 39.2142 13.2844C39.2142 24.9404 39.2038 24.7446 39.7191 25.7443C40.1829 26.6409 41.3166 27.4448 42.5842 27.7746C43.285 27.9601 45.3462 27.9806 46.1398 27.8158C47.16 27.5994 47.3558 27.2902 46.9539 26.4966C46.6962 26.0019 46.3562 24.9198 46.2737 24.3221C46.1603 23.611 46.0161 23.4976 45.1504 23.5182C44.7382 23.5285 44.3465 23.4976 44.2743 23.4564C43.8518 23.1884 43.8518 23.1162 43.8518 12.6763C43.8518 5.96715 43.8209 2.5971 43.7487 2.46312C43.6457 2.27762 43.5117 2.26731 41.5536 2.27762C40.4096 2.27762 39.4099 2.30854 39.3481 2.33946ZM48.7986 2.37037C48.6647 2.45282 48.6441 3.77198 48.6441 13.2122C48.6441 23.3842 48.6544 24.0026 48.8399 24.7137C49.1903 26.1153 49.9838 26.9707 51.4886 27.5994C52.0657 27.8364 52.3233 27.8776 53.4879 27.9086C55.0441 27.9498 55.8377 27.8364 56.6312 27.4345C57.4145 27.0531 57.435 26.7852 56.7652 25.8061C56.4972 25.4145 56.085 24.7446 55.8582 24.3221L55.446 23.5491L54.6937 23.5388C53.7558 23.5182 53.6631 23.477 53.4879 23.0338C53.3539 22.735 53.3333 21.1994 53.3333 12.6763C53.3333 5.96715 53.3024 2.5971 53.2302 2.46312C53.1272 2.27762 52.9932 2.26731 51.035 2.26731C49.8911 2.26731 48.8811 2.31884 48.7986 2.37037Z" fill="#6D1ED4"/>
<path d="M26.3833 8.812C26.3318 8.83264 25.9298 8.92536 25.5073 9.01808C22.8586 9.62616 20.5192 11.6565 19.5298 14.233C18.9836 15.6551 18.7878 16.7579 18.7775 18.3966C18.7672 20.6948 19.231 22.385 20.2925 23.9926C21.4879 25.7962 23.24 27.0226 25.5073 27.641C26.2802 27.8471 26.6203 27.878 28.393 27.878C30.145 27.878 30.5057 27.8471 31.2374 27.6513C33.0513 27.1463 34.5971 26.3115 35.8442 25.1263C36.6377 24.3843 36.6274 24.1782 35.8235 23.5598C35.4938 23.3022 34.896 22.7457 34.5044 22.3128C34.0097 21.7872 33.7108 21.5398 33.5562 21.5398C33.4119 21.5398 33.0822 21.746 32.7626 22.0551C31.6599 23.0548 30.2686 23.5289 28.4445 23.5186C26.7749 23.5083 25.5588 23.0754 24.7858 22.1891C24.3942 21.746 23.8995 20.736 23.7965 20.1692L23.7346 19.7878H30.1553C33.6902 19.7878 36.648 19.7466 36.7202 19.6951C37.0602 19.4786 37.1427 17.9843 36.8954 16.3559C36.3079 12.4603 33.9788 9.84256 30.3202 8.96656C29.6709 8.812 29.135 8.76048 27.9807 8.7708C27.1562 8.7708 26.4451 8.79136 26.3833 8.812ZM29.135 12.7901C29.8873 12.9447 30.8149 13.46 31.2477 13.9546C31.6496 14.4082 32.0618 15.2223 32.165 15.7479L32.237 16.0777H23.8377L23.9098 15.7479C24.219 14.3566 25.4146 13.192 26.8986 12.821C27.5582 12.6561 28.4445 12.6458 29.135 12.7901ZM63.8454 8.90472C60.1868 9.71888 57.7134 12.2954 56.9405 16.0983C56.4767 18.345 56.7343 20.9627 57.6103 22.8384C58.8058 25.4355 60.9804 27.1154 63.9485 27.7234C64.8863 27.9193 65.2574 27.9398 66.7311 27.8986C67.9782 27.8574 68.648 27.7853 69.2251 27.6306C70.9874 27.1669 72.5334 26.3218 73.7186 25.1882C74.6254 24.3122 74.6254 24.271 73.6464 23.4568C73.193 23.0858 72.5849 22.4983 72.2963 22.1582C71.6265 21.3853 71.4513 21.375 70.6989 22.0551C69.5756 23.0754 68.2358 23.5289 66.3704 23.5186C63.7527 23.5083 62.2274 22.385 61.7327 20.1176L61.6606 19.8502H74.7182C75.1614 19.5307 74.9965 16.1498 74.4606 14.5834C74.3575 14.2742 74.0793 13.6558 73.8526 13.223C72.6467 10.9144 70.7195 9.48192 68.04 8.91504C67.1846 8.72952 64.6596 8.72952 63.8454 8.90472ZM67.0609 12.7901C67.7617 12.9447 68.4831 13.3054 68.9984 13.7692C69.4313 14.1711 70.1321 15.4387 70.1321 15.8303V16.0777H61.7637L61.8358 15.7891C62.3717 13.5837 64.639 12.2748 67.0609 12.7901Z" fill="#6D1ED4"/>
</g>
<defs>
<clipPath id="clip0_1734_3792">
<rect width="75.2" height="32" fill="white" transform="translate(0.160156)"/>
</clipPath>
</defs>
</svg>
